<?xml version="1.0" encoding="utf-8"?>
<!-- Generator: Adobe Illustrator 19.0.0, SVG Export Plug-In . SVG Version: 6.00 Build 0)  -->
<svg version="1.1" id="Layer_1" xmlns="http://www.w3.org/2000/svg" xmlns:xlink="http://www.w3.org/1999/xlink" x="0px" y="0px"
	 viewBox="0 0 150 150" style="enable-background:new 0 0 150 150;" xml:space="preserve">
<g id="XMLID_1_">
	<path id="XMLID_111_" d="M148.7,63c-0.1,0.4-0.2,0.9-0.2,1.3c-0.8,5.3-3.5,9.5-7.2,13.2c-4.3,4.4-9.4,7.6-14.8,10.4
		c-9.6,4.9-19.8,7.9-30.4,10c-11.5,2.3-23.2,3.3-34.9,3.3c-11.6,0-23.1-1.2-34.4-3.7c-0.5-0.1-1-0.2-1.4-0.5
		c0.7,0.1,1.4,0.1,2.1,0.2c7,0.9,14.1,1.5,21.2,1.4c7.3-0.1,14.7-0.2,22-0.7c14.2-1,28.1-3.8,41.4-9c7-2.7,13.6-6.2,19.3-11.1
		c2.6-2.2,4.9-4.7,6.6-7.7c3.8-6.9,3.2-13.9-1.9-20c-3.6-4.3-8.1-7.4-13.1-9.9c-7.3-3.7-15.1-6.1-23.2-7.9
		c-10.2-2.2-20.5-3.3-30.9-3.4c-5.5,0-11.1,0.1-16.6,0.5c-9.9,0.8-19.5,3.2-29,6.3C16.1,38.3,9,41.1,2.1,44.4
		c-0.2,0.1-0.5,0.2-0.8,0.3c0.1-0.1,0.2-0.2,0.3-0.2C12,38.7,22.9,34,34.5,31c9.4-2.4,18.9-3.8,28.5-4.2c0.4,0,0.8-0.1,1.2-0.1
		c4.2,0,8.4,0,12.6,0c0.3,0,0.5,0.1,0.8,0.1c2.9,0.2,5.8,0.3,8.8,0.6c12.2,1,24.2,3.1,35.7,7.4c6.2,2.3,12.1,5.2,17.3,9.5
		c4,3.4,7.3,7.3,8.7,12.5c0.3,1.2,0.5,2.4,0.7,3.6C148.7,61.3,148.7,62.1,148.7,63z"/>
	<path id="XMLID_107_" d="M10.4,43.5c1.7-0.8,3.4-1.5,5.1-2.2c8.2-3.3,16.7-5.5,25.4-7c8-1.4,16-2.1,24.1-2.2
		c10.9-0.2,21.7,0.6,32.5,2.7c8.5,1.7,16.7,4.2,24.3,8.3c3.8,2.1,7.3,4.5,10.1,7.7c2.9,3.3,4.7,7.1,4.5,11.6
		c-0.2,4.1-2,7.5-4.5,10.6c-3.9,4.6-8.8,7.9-14.1,10.6c-9,4.6-18.7,7.5-28.6,9.4c-9.6,1.9-19.3,2.7-29.1,2.9
		c-7.8,0.2-15.6,0-23.4-0.8c-8.6-0.8-17.1-2.3-25.2-5.3c-0.3-0.1-0.5-0.2-0.8-0.3c0,0-0.1-0.1-0.1-0.1c2.7,0.5,5.5,1,8.3,1.4
		c10.3,1.5,20.6,1.4,31,0.2c9.4-1.1,18.5-3.1,27.2-6.6c5.8-2.3,11.3-5.2,16.1-9.5c2-1.8,3.8-3.9,5.1-6.4c2.5-5,2.2-9.7-1-14.3
		c-0.2-0.3-0.4-0.6-0.7-1c0.4,0,0.7-0.1,1-0.1c2.1-0.1,4.3-0.2,6.4-0.4c2.4-0.3,4.7-1,6.4-3c0.3-0.4,0.6-0.8,0.8-1.3
		c0.7-1.4,0.3-2.9-1-3.7c-1-0.7-2.2-0.8-3.4-0.8c-4.1,0.2-8.2,0.4-12.3,0.6c-2.7,0.1-5.3,0.3-8,0.4c-0.3,0-0.5,0.1-0.8,0.2
		c3.9,2.2,7.8,4.3,10.9,8c-1.5,0.1-2.9,0.2-4.2,0.2c-0.5,0-0.8,0.2-1.1,0.7C86.4,63,80.8,71.3,74.8,79.4c-2.2,3-7.1,4.4-10.6,3.2
		c-2-0.7-2.7-2.5-1.5-4.4c1.5-2.3,3.2-4.6,4.7-6.9c3.5-5.3,7-10.7,10.5-16.1c0.2-0.2,0.3-0.5,0.5-0.9c-4.3,0.2-8.4,0.4-12.7,0.6
		c0,0.3-0.1,0.8-0.1,1.2c-0.5,3.7-2,7-4.1,10c-6.1,8.6-14.1,14.4-24.4,17c-4.7,1.2-9.4,1.2-14.1-0.2c-1.9-0.6-3.6-1.4-5.1-2.7
		c-3.1-2.7-3.8-6.2-2.9-10c1-4.3,3.1-8,6-11.3c5.4-6.2,12-10.9,20-13.4c5.6-1.8,11.3-2.2,17.1-0.5c2.2,0.7,4.1,1.8,5.6,3.5
		c0.1,0,0.2,0,0.2,0c2.5-2.2,5.5-2.5,8.6-2.7c3.9-0.2,7.7-0.4,11.6-0.6c0.2,0,0.4-0.1,0.9-0.1c-0.6-0.3-1-0.5-1.4-0.7
		c-5.8-2.5-11.9-4-18.2-5c-11-1.7-22-1.7-33-0.4c-7.4,0.9-14.7,2.4-21.9,4.7C10.5,43.7,10.4,43.6,10.4,43.5z M34,74.9
		c1.9,0,3.7-0.5,5.4-1.4c4.3-2.3,7.7-5.6,10.4-9.6c1.4-2.1,2.5-4.4,2.5-7c0-2.3-1.1-3.6-3.4-4c-2.4-0.4-4.7-0.1-6.9,0.9
		c-5.2,2.3-9.2,6-12.1,10.8c-1,1.6-1.7,3.4-1.8,5.3c-0.2,2.5,1,4.2,3.5,4.7C32.3,74.8,33.2,74.8,34,74.9z"/>
	<path id="XMLID_104_" d="M10.8,120.5c-1.6-0.2-3.1-0.2-4.6-0.5c-2.9-0.6-3.9-2.5-3-5.4c1.1-3.5,3.6-5.7,7.1-6.6
		c3.3-0.8,6.7-0.8,10.1-0.2c0.5,0.1,0.9,0.2,1.4,0.4c1.7,0.7,2.4,2.1,2.1,3.9c-0.6,4-3.7,7-8.2,7.8C14,120.2,12.4,120.3,10.8,120.5z
		 M12,117.3c2.9,0,5-1.7,5.5-4.5c0.2-1.1-0.2-1.8-1.3-2.1c-2.7-0.9-5.7,0.5-6.7,3.1C8.6,116.2,9.4,117.3,12,117.3z"/>
	<path id="XMLID_103_" d="M55,116.3c0,0.8,0.6,1,1.2,1c0.9,0,1.9,0,2.8-0.2c0.4-0.1,0.6-0.6,0.9-0.9c-0.3-0.2-0.7-0.5-1.1-0.6
		c-2-0.3-4-0.5-6.1-0.8c-1.1-0.2-2.2-0.4-2.6-1.6c-0.4-1.2,0.2-2.2,0.9-3.2c0.8-1,2-1.6,3.2-1.9c3.8-1,7.7-1,11.5-0.2
		c0.6,0.1,1.2,0.4,1.6,0.8c0.4,0.4,0.7,1,0.8,1.5c0.2,0.9-0.1,1.1-1,1.1c-1.7,0-3.4,0-5.1,0c-0.4,0-0.7,0-0.8-0.5
		c-0.1-0.2-0.5-0.5-0.8-0.5c-1.1,0-2.2,0-3.3,0.1c-0.3,0-0.5,0.5-0.8,0.8c0.3,0.2,0.6,0.4,0.9,0.5c2,0.3,4,0.5,6,0.8
		c0.8,0.1,1.7,0.3,2.4,0.6c1.3,0.5,1.6,1.5,1.2,2.8c-0.4,1.2-1.1,2.2-2.2,2.7c-1.1,0.5-2.2,1.1-3.4,1.3c-3.4,0.7-6.9,0.7-10.3,0.1
		c-0.7-0.1-1.5-0.3-2-0.7c-0.5-0.4-0.9-1-1.1-1.6c-0.2-1,0.1-1.3,1.2-1.3C51,116.3,53,116.3,55,116.3z"/>
	<path id="XMLID_100_" d="M65.9,123.2c0.4-1,0.7-1.9,1.1-2.8c1.2-3,2.4-6,3.6-9c0.2-0.5,0.4-0.7,1-0.7c1.4,0,2.7,0,4.1,0
		c0,0.3-0.1,0.6-0.1,0.9c0.2-0.1,0.4-0.1,0.6-0.2c2.1-1,4.3-1.2,6.5-0.7c2.3,0.5,3.2,2.1,2.4,4.3c-0.8,2.5-2.7,4.1-5.1,4.8
		c-1.4,0.4-3,0.5-4.5,0.5c-0.9,0-1.9-0.5-3-0.8c-0.3,0.6-0.6,1.5-0.9,2.4c-0.6,1.5-0.6,1.5-2.2,1.5c-1.1,0-2.1,0-3.2,0
		C66.1,123.3,66,123.2,65.9,123.2z M77.7,113.2c-2,0-3.3,0.9-3.7,2.4c-0.2,0.8,0,1.4,0.8,1.6c1.4,0.4,2.8,0.2,4-0.7
		c0.8-0.6,1.3-1.8,1-2.4C79.3,113.2,78.4,113.3,77.7,113.2z"/>
	<path id="XMLID_97_" d="M93,120.5c-1.8-0.2-3.2-0.3-4.5-0.6c-2.6-0.5-3.3-2.1-2.4-4.5c1.1-2.9,3.4-4.2,6.2-4.8
		c2.4-0.5,4.9-0.5,7.3-0.1c3.4,0.5,4.4,2.4,2.8,5.5c-0.9,1.6-2.1,2.9-3.9,3.3C96.6,119.9,94.5,120.2,93,120.5z M95.3,113
		c-0.3,0-0.7,0-1,0.1c-1.5,0.2-2.6,1.2-2.9,2.7c-0.1,0.6,0,1.1,0.6,1.4c1.4,0.8,4.1,0.1,5-1.2c0.4-0.7,0.9-1.4,0.5-2.3
		C97,113,96.1,113.1,95.3,113z"/>
	<path id="XMLID_96_" d="M130,117c0.6,0,1.1,0,1.7,0c0.6,0,1.2-0.1,1.7,0.6c0.4,0.6,2.8,0.4,3.2-0.1c0.1-0.1,0.3-0.4,0.2-0.5
		c-0.1-0.2-0.4-0.3-0.6-0.4c-1.4-0.1-2.9-0.2-4.3-0.4c-0.8-0.1-1.6-0.2-2.3-0.5c-0.9-0.3-1.1-0.9-0.9-1.8c0.3-1.4,1.2-2.2,2.4-2.7
		c1.7-0.8,3.6-1,5.4-1c1.6,0,3.3,0.1,4.9,0.3c0.6,0.1,1.3,0.3,1.7,0.7c0.4,0.3,0.5,1,0.7,1.5c0,0.1-0.4,0.6-0.6,0.6
		c-1.6,0-3.1,0-4.7,0c-0.2,0-0.4,0-0.5-0.1c-0.8-1.1-1.9-0.7-3-0.5c-0.3,0-0.5,0.4-0.7,0.6c0.3,0.2,0.5,0.4,0.8,0.5
		c1.4,0.2,2.9,0.2,4.3,0.4c0.9,0.1,1.7,0.2,2.5,0.5c1,0.3,1.3,1,1,2c-0.4,1.3-1.2,2.3-2.4,2.7c-1.6,0.5-3.2,0.9-4.8,0.9
		c-2,0.1-4.1-0.1-6.2-0.2c-0.6,0-1.2-0.3-1.7-0.6c-0.7-0.4-1-1-0.8-1.8c0-0.2,0.4-0.5,0.6-0.6C128.3,117,129.1,117,130,117
		C130,117,130,117,130,117z"/>
	<path id="XMLID_95_" d="M42.7,108c-0.3,0.9-0.6,1.7-1,2.5c-0.1,0.2-0.5,0.4-0.8,0.4c-1.3,0-2.6,0-3.8,0c-0.6,0-0.9,0.2-1.2,0.8
		c-0.9,2.3-1.8,4.7-2.8,7c-0.6,1.5-0.3,1.3-1.9,1.3c-1.4,0-2.8,0-4.4,0c1.2-3,2.4-6,3.6-9c-1.8,0-3.5,0-5.3,0c0.4-1,0.7-1.9,1.1-2.8
		c0.1-0.2,0.4-0.3,0.6-0.3c5.2,0,10.4,0,15.6,0C42.5,107.8,42.5,107.9,42.7,108z"/>
	<path id="XMLID_94_" d="M125.8,110.6c1,0,1.8,0,2.7,0c-0.4,0.9-0.7,1.7-1.1,2.5c-0.1,0.2-0.5,0.2-0.8,0.2c-2,0-2,0-2.7,1.9
		c-0.2,0.4-0.3,0.9-0.5,1.3c-0.3,0.7,0,0.9,0.7,0.9c0.6,0,1.1,0,1.9,0c-0.3,0.8-0.6,1.5-0.9,2.2c-0.1,0.1-0.3,0.3-0.5,0.3
		c-1.8,0-3.6,0.2-5.3,0c-1.4-0.1-1.9-0.8-1.4-2.2c0.5-1.4,1.1-2.9,1.7-4.4c-0.8,0-1.4-0.1-2.3-0.1c0.3-0.9,0.6-1.7,1-2.4
		c0.1-0.2,0.7-0.2,1.1-0.2c1.5-0.1,1.2,0.3,1.8-1.3c0.7-1.7,0.7-1.7,2.5-1.7c1,0,2.1,0,3.3,0C126.5,108.7,126.2,109.6,125.8,110.6z"
		/>
	<path id="XMLID_93_" d="M111.3,110.6c-0.2,0.6-0.4,1-0.5,1.5c2.2-1.3,4.4-2,7.1-1.6c-0.5,1.2-0.9,2.3-1.4,3.5
		c-0.1,0.1-0.5,0.2-0.7,0.2c-1.1,0-2.2-0.2-3.3,0c-1.6,0.2-2.8,1.1-3.4,2.7c-0.3,0.9-0.6,1.7-1,2.6c-0.1,0.2-0.4,0.5-0.6,0.5
		c-1.5,0-3,0-4.6,0c0.1-0.3,0.1-0.6,0.2-0.8c1-2.6,2.1-5.2,3.1-7.8c0.2-0.5,0.5-0.8,1.1-0.8C108.5,110.7,109.9,110.6,111.3,110.6z"
		/>
	<path id="XMLID_92_" d="M126.7,92.1c-0.2,0.2-0.5,0.4-0.7,0.6c-0.1-0.2-0.3-0.4-0.4-0.6c-0.2,0.2-0.4,0.4-0.5,0.7
		c-0.1-0.1-0.2-0.1-0.3-0.2c0.2-0.6,0.5-1.1,0.7-1.7c0.3,0.2,0.6,0.4,1,0.7c0.2-0.2,0.3-1.1,1.2-0.6c-0.1,0.4-0.1,0.7-0.2,1.1
		c-0.1,0.2-0.3,0.4-0.4,0.5C126.9,92.5,126.8,92.3,126.7,92.1z"/>
	<path id="XMLID_91_" d="M123.5,92.6c-0.1-0.5-0.1-1-0.2-1.6c0.4,0,0.9,0,1.6,0c-0.3,0.3-0.6,0.5-0.8,0.8c-0.2,0.3-0.2,0.6-0.4,0.9
		C123.7,92.7,123.6,92.6,123.5,92.6z"/>
</g>
</svg>
