<?xml version="1.0" encoding="utf-8"?>
<!-- Generator: Adobe Illustrator 19.0.0, SVG Export Plug-In . SVG Version: 6.00 Build 0)  -->
<svg version="1.1" id="Layer_1" xmlns="http://www.w3.org/2000/svg" xmlns:xlink="http://www.w3.org/1999/xlink" x="0px" y="0px"
	 viewBox="0 0 150 150" style="enable-background:new 0 0 150 150;" xml:space="preserve">
<style type="text/css">
	.st0{fill:#0E384F;}
</style>
<g id="XMLID_16_">
	<g id="XMLID_15_">
		<path id="XMLID_66_" class="st0" d="M33.4,111.3c0-2.1,0-4.2,0-6.2c0-0.8,0.2-1.5,1-1.9c3.4-1.7,6.8-2.5,10.2-0.1
			c0.6,0.4,0.9,0,1.2-0.2c1.7-1,3.5-1.4,5.5-1.2c3,0.3,5,2.1,5.1,5.2c0.1,3.7,0,7.4,0.1,11.1c0,0.9-0.4,1.2-1.3,1.2
			c-0.3,0-0.7,0-1,0c-1,0.1-1.4-0.3-1.4-1.4c0.1-2.7,0-5.4,0-8.1c0-0.3,0-0.7,0-1c-0.1-2.8-1.9-4-4.6-3c-1,0.4-1.6,0.8-1.5,2.1
			c0.1,3.4,0,6.8,0.1,10.2c0,1-0.4,1.3-1.4,1.3c-2.3,0-2.3,0-2.3-2.3c0-2.7,0-5.4,0-8.1c0-1.2-0.1-2.5-1.3-3.1
			c-1.5-0.7-2.9-0.3-4.3,0.3c-0.5,0.3-0.4,0.8-0.4,1.2c0,3.4,0,6.9,0,10.3c0,1.5-0.1,1.6-1.8,1.6c-1.8,0-1.8-0.1-1.8-1.6
			C33.3,115.3,33.4,113.3,33.4,111.3z"/>
		<path id="XMLID_62_" class="st0" d="M77.3,111.2c0-2.1,0-4.2,0-6.4c0-0.8,0.3-1.4,1-1.8c2.9-1.5,5.9-2,9.1-1.2
			c2.7,0.7,4.5,2.8,4.6,5.6c0.1,3.4,0,6.9,0,10.3c0,0.9-0.4,1.2-1.2,1.2c-0.4,0-0.8,0-1.1,0c-0.9,0.1-1.3-0.3-1.3-1.2
			c0-2.8,0-5.6,0-8.4c0-1.5,0-3-1.5-3.8c-1.8-0.9-3.6-0.5-5.3,0.2c-0.6,0.3-0.5,0.8-0.5,1.3c0,3.4-0.1,6.9,0,10.3
			c0,1.3-0.5,1.6-1.7,1.6c-1.9,0-2.1-0.1-2.1-1.5C77.2,115.4,77.3,113.3,77.3,111.2C77.3,111.2,77.3,111.2,77.3,111.2z"/>
		<path id="XMLID_61_" class="st0" d="M119.5,113.9c1.4-3.8,2.7-7.3,4.1-10.8c0.2-0.6,0.2-1.4,1-1.4c1,0,1.9,0.4,2.7,1.1
			c0.4,0.3,0.1,0.8-0.1,1.2c-2.1,5.1-4.2,10.3-6.4,15.4c-0.9,2-2.2,3.8-4.1,5.1c-1.1,0.7-1.6,0.5-2.7-1c-0.7-0.9-0.3-1.4,0.5-1.9
			c0.4-0.2,0.7-0.6,1.1-0.9c1.9-1.9,2-2.6,1-5c-1.7-3.8-3.3-7.5-5-11.3c-0.5-1.1-0.3-1.7,0.8-2.1c2.1-0.8,2.1-0.9,2.9,1.2
			c1.3,3.2,2.6,6.4,3.8,9.6C119.1,113.2,119.3,113.4,119.5,113.9z"/>
		<path id="XMLID_9_" class="st0" d="M74.5,110C74.5,110,74.5,110,74.5,110c0,0,0-1.3,0-2.1c-0.3-3.4-2.7-5.8-6-6.4
			c-3.9-0.6-7.3,1-8.6,4.1c-1.2,3-1.2,6.2,0,9.2c1.3,3.3,4.8,4.9,8.6,4.2c3.4-0.6,5.8-3.4,6-6.9C74.5,111.5,74.5,112,74.5,110z
			 M70.8,112.2c-0.3,2.2-1.8,3.5-4,3.5c-2.1,0-3.6-1.3-3.9-3.5c-0.2-1.3-0.2-2.6,0-3.9c0.4-2.1,1.8-3.2,3.9-3.2
			c2.1,0,3.4,1.1,3.8,3.2c0.1,0.7,0.1,1.4,0.2,2C70.9,111,70.9,111.6,70.8,112.2z"/>
		<path id="XMLID_12_" class="st0" d="M99,111.8c1.5,0,3,0.2,4.5,0.2c1,0,2,0,3.1,0c3,0,3-0.2,3-3.1c0-3.9-2.2-6.7-5.8-7.2
			c-4.3-0.6-7.8,1.4-8.8,5.3c-0.5,1.9-0.4,3.8-0.2,5.8c0.3,3,2.2,5.3,5.1,6.1c2.7,0.7,5.3,0.3,7.8-0.8c1-0.4,1-1.1,0.6-1.9
			c-0.4-0.8-0.6-1.7-1.9-1.1c-1.4,0.7-2.9,0.9-4.5,0.8c-2.1-0.2-3.5-1.4-3.7-3.3C98.2,111.9,98.4,111.8,99,111.8z M102.1,104.7
			c2.2,0,3.8,1.4,3.9,3.4c0,0.6-0.1,0.9-0.8,0.9c-1.1,0-2.1,0-3.2,0c-1,0-2,0-3,0c-0.5,0-0.8-0.1-0.8-0.7
			C98.3,106.4,100,104.7,102.1,104.7z"/>
	</g>
	<g id="XMLID_1_">
		<path id="XMLID_60_" class="st0" d="M6.3,70.8c0-4.7,0.1-9.4,0-14.1c-0.1-2.8,1.5-2.9,3.5-2.8c1.9,0,3.8-0.3,3.8,2.7
			c0,4.5,0.1,4.5,4.5,4.5c1.1,0,2.1,0,3.2,0c3.6,0,5,2.1,3.8,5.5c-0.4,1.2-1.3,1.1-2.2,1.1c-2.6,0-5.1,0.1-7.7,0
			c-1.3,0-1.7,0.4-1.7,1.7c0.1,4.7,0,9.4,0.1,14.1c0.1,3.8,2,5.3,5.7,4.7c1-0.2,2.1-0.4,3.1-0.9c1.8-0.8,2.7-0.1,3.4,1.6
			c1.4,3.5,1.3,3.9-2.3,5.1c-1.4,0.5-2.8,0.8-4.3,0.9c-8.4,0.6-12.8-3.4-12.8-11.7C6.3,79,6.3,74.9,6.3,70.8z"/>
		<path id="XMLID_59_" class="st0" d="M50.9,71.9c0-6.5,0-13,0-19.5c0-2.8,0.3-3.1,3.7-3.1c3.2,0,3.5,0.2,3.5,2.9
			c0,13.1,0,26.1,0,39.2c0,2.7-0.4,2.9-3.5,2.9c-3.4,0-3.6-0.2-3.7-3.1C50.9,84.9,50.9,78.4,50.9,71.9z"/>
		<path id="XMLID_58_" class="st0" d="M68.5,71.8c0-6.5,0.1-13,0-19.5c0-2.3,0.8-3,3-3c3.7,0,4.2,0.2,4.2,2.8c0,13.2,0,26.4,0,39.5
			c0,3.1-2.1,2.7-4.1,2.7c-2,0.1-3.3-0.3-3.2-2.8C68.6,85,68.5,78.4,68.5,71.8z"/>
		<path id="XMLID_57_" class="st0" d="M118.3,81.1c0-3.4-0.1-6.7,0-10.1c0.1-6.5,4.1-10.3,10.6-10.4c2.3,0,4.6,0.2,6.8,0.9
			c1.6,0.5,2,1.3,1.6,2.9c-1.2,4.7-1.8,4.4-5.1,3.3c-0.6-0.2-1.3-0.2-2-0.2c-3.6-0.1-4.8,1.1-4.8,4.6c-0.1,6.2,0,12.3,0,18.5
			c0,1.2,0.6,2.9-1,3.5c-1.7,0.6-3.6,0.6-5.3,0c-1-0.3-0.8-1.3-0.8-2.1C118.3,88.3,118.3,84.7,118.3,81.1z"/>
		<path id="XMLID_56_" class="st0" d="M40.5,77.7c0,4.6-0.1,9.2,0,13.8c0.1,2.1-0.7,2.9-2.8,3c-4.2,0-4.4,0-4.4-4.1
			c0-8.7,0-17.4,0-26.1c0-3,0.1-3.1,3.5-3.1c3.5,0,3.6,0.1,3.6,3C40.5,68.7,40.5,73.2,40.5,77.7z"/>
		<path id="XMLID_54_" class="st0" d="M33,52.4c0-3.6,0.2-3.7,4.4-3.7c3.3,0,3.5,0.2,3.4,4.3c0,3.4-0.3,3.6-4.2,3.6
			C33.2,56.6,33,56.3,33,52.4z"/>
		<path id="XMLID_6_" class="st0" d="M91.6,80.1c2.8,0.1,5.6-0.1,8.4-0.1c1.8,0,3.6,0,5.4,0c6.4,0,6.9-0.4,6.3-6.8
			c0-0.1,0-0.1,0-0.2c-0.7-6.8-4.4-11.1-10.6-12.2c-7.2-1.3-13.9,1.6-16.6,7.8c-2.5,5.7-2.2,11.8-0.4,17.6c1.2,3.9,4.2,6.4,8,7.8
			c5.5,1.9,10.9,0.9,16.1-1.2c2.2-0.9,1.9-2.2,1.2-3.9c-0.8-1.8-1.5-3.1-3.8-2c-2.7,1.4-5.6,1.8-8.6,1.5c-3.8-0.3-6.4-2.7-7-6.2
			C89.7,80.7,90,80,91.6,80.1z M89.9,73.9c0-3.8,3.5-7.2,7.6-7.3c4.4-0.1,7.6,2.8,7.7,6.9c0,1.3-0.5,1.5-1.6,1.5c-2-0.1-4.1,0-6.1,0
			c-2,0-4.1,0-6.1,0C90.5,75.1,89.9,75.1,89.9,73.9z"/>
	</g>
	<polygon id="XMLID_14_" class="st0" points="147,27 122.3,27 147,48.8 	"/>
</g>
</svg>
